<?xml version="1.0" encoding="UTF-8" standalone="no"?><!DOCTYPE svg PUBLIC "-//W3C//DTD SVG 1.1//EN" "http://www.w3.org/Graphics/SVG/1.1/DTD/svg11.dtd"><svg width="100%" height="100%" viewBox="0 0 512 512" version="1.1" xmlns="http://www.w3.org/2000/svg" xmlns:xlink="http://www.w3.org/1999/xlink" xml:space="preserve" xmlns:serif="http://www.serif.com/" style="fill-rule:evenodd;clip-rule:evenodd;stroke-linejoin:round;stroke-miterlimit:1.41421;"><g><path d="M406.297,372.689l-83.709,0c-4.971,0 -9,-4.029 -9,-9l0,-152.518c0,-31.754 -25.834,-57.587 -57.588,-57.587c-31.754,0 -57.588,25.833 -57.588,57.587l0,95.125l0,57.393c0,4.971 -4.029,9 -9,9l-83.709,0c-4.971,0 -9,-4.029 -9,-9l0,-152.518c0,-16.003 2.379,-31.809 7.069,-46.979c1.47,-4.749 6.508,-7.404 11.258,-5.939c4.748,1.469 7.407,6.509 5.939,11.258c-4.158,13.446 -6.267,27.463 -6.267,41.661l0,86.125l65.709,0l0,-86.125c0,-41.679 33.908,-75.587 75.588,-75.587c41.68,0 75.588,33.908 75.588,75.587l0,86.125l65.709,0l0,-86.125c0,-77.911 -63.386,-141.297 -141.297,-141.297c-49.229,0 -94.164,25.081 -120.199,67.093c-2.619,4.225 -8.165,5.527 -12.392,2.909c-4.225,-2.619 -5.527,-8.166 -2.909,-12.392c14.041,-22.657 33.694,-41.606 56.836,-54.8c23.879,-13.614 51.081,-20.811 78.664,-20.811c87.837,0 159.297,71.46 159.297,159.297l0,95.125l0,57.393c0.001,4.971 -4.028,9 -8.999,9Zm-291.594,-57.392l0,39.393l65.709,0l0,-39.393l-65.709,0Zm216.885,0l0,39.393l65.709,0l0,-39.393l-65.709,0Z" style="fill-rule:nonzero;stroke:#000;stroke-opacity:0;stroke-width:1px;"/><path d="M162.84,457.489c-3.516,3.514 -9.213,3.514 -12.729,0l-33.056,-33.056c-2.573,-2.574 -3.344,-6.445 -1.95,-9.809c1.393,-3.363 4.674,-5.556 8.314,-5.556l26.548,0l-10.677,-10.677c-3.515,-3.516 -3.515,-9.214 0,-12.729c1.758,-1.757 4.061,-2.636 6.364,-2.636c2.303,0 4.606,0.879 6.364,2.636l26.04,26.041c2.573,2.574 3.344,6.445 1.95,9.809c-1.393,3.363 -4.675,5.556 -8.314,5.556l-26.548,0l17.692,17.691c3.516,3.516 3.516,9.216 0.002,12.73Z" style="fill-rule:nonzero;"/><path d="M379.725,457.489c-3.516,3.514 -9.213,3.514 -12.729,0l-33.056,-33.055c-2.573,-2.574 -3.344,-6.445 -1.95,-9.809c1.393,-3.363 4.674,-5.556 8.314,-5.556l26.548,0l-10.677,-10.677c-3.515,-3.516 -3.515,-9.214 0,-12.729c1.758,-1.757 4.061,-2.636 6.364,-2.636c2.303,0 4.606,0.879 6.364,2.636l26.04,26.041c2.573,2.574 3.344,6.445 1.95,9.809c-1.393,3.363 -4.675,5.556 -8.314,5.556l-26.548,0l17.692,17.691c3.516,3.515 3.516,9.215 0.002,12.729Z" style="fill-rule:nonzero;"/></g></svg>